<svg width="24" height="24" viewBox="0 0 24 24" fill="none" xmlns="http://www.w3.org/2000/svg">
<path d="M19.607 18.746C19.607 19.627 18.891 20.37 18.01 20.37H5.23097C4.34997 20.37 3.63397 19.627 3.63397 18.746V5.96703C3.63397 5.08603 4.34997 4.39603 5.23097 4.39603H12.685V3.33203H5.23097C3.76297 3.33203 2.56897 4.50003 2.56897 5.96803V18.746C2.56897 20.214 3.76297 21.434 5.23097 21.434H18.009C19.477 21.434 20.671 20.213 20.671 18.746V11.318H19.606L19.607 18.746Z" fill="black"/>
<path d="M20.807 3.17003C20.003 2.36503 18.6 2.36503 17.795 3.17003L10.652 10.313C10.584 10.381 10.535 10.467 10.512 10.56L9.76 13.571C9.715 13.752 9.768 13.944 9.9 14.077C10.001 14.178 10.137 14.233 10.276 14.233C10.319 14.233 10.362 14.228 10.405 14.217L13.417 13.464C13.511 13.441 13.596 13.392 13.664 13.324L20.807 6.18103C21.209 5.77903 21.431 5.24403 21.431 4.67503C21.431 4.10603 21.21 3.57203 20.807 3.17003ZM13.016 12.467L11.008 12.969L11.51 10.961L17.419 5.05203L18.925 6.55803L13.016 12.467ZM20.054 5.42803L19.678 5.80403L18.172 4.29803L18.548 3.92203C18.95 3.52003 19.652 3.52003 20.054 3.92203C20.255 4.12303 20.366 4.39003 20.366 4.67503C20.366 4.96003 20.255 5.22703 20.054 5.42803Z" fill="black"/>
</svg>
